<?xml version="1.0" standalone="no"?>
<!DOCTYPE svg PUBLIC "-//W3C//DTD SVG 1.1//EN" "http://www.w3.org/Graphics/SVG/1.1/DTD/svg11.dtd" >
<svg xmlns="http://www.w3.org/2000/svg">
<metadata>
This is a custom SVG webfont generated by Font Squirrel.
Copyright   : Copyright  2011 by Tony Thomas All rights reserved
Designer    : Tony Thomas
Foundry     : MediaLoot
Foundry URL : httpwwwmedialootcom
</metadata>
<defs>
<font id="AscheRegular" horiz-adv-x="550" >
<font-face units-per-em="2048" ascent="1638" descent="-410" />
<missing-glyph horiz-adv-x="409" />
<glyph unicode=" "  horiz-adv-x="409" />
<glyph unicode="&#x09;" horiz-adv-x="409" />
<glyph unicode="&#xa0;" horiz-adv-x="409" />
<glyph unicode="!" horiz-adv-x="239" d="M61 14v127h117v-127h-117zM61 373v1075h117v-1075h-117z" />
<glyph unicode="&#x22;" horiz-adv-x="485" d="M61 1059v385h117v-385h-117zM307 1059v385h117v-385h-117z" />
<glyph unicode="#" horiz-adv-x="802" d="M61 784v119h207l121 547h115l-121 -547h109l122 547h113l-121 -547h129v-119h-153l-52 -219h211v-121h-235l-96 -428h-113l94 428h-110l-95 -428h-114l94 428h-98v121h125l49 219h-181zM307 565h111l49 219h-111z" />
<glyph unicode="$" d="M61 76v211h117v-142q55 -20 96 -20q35 0 99 18v504h-211q-41 0 -71 32t-30 77v592l23 18q18 12 37 20q29 16 96 33v174h117v-174q100 -25 129 -53l26 -18v-211h-116v141q-55 23 -99 22q-45 0 -96 -22v-502h211q41 0 69.5 -30.5t28.5 -75.5v-41h2v-553l-26 -19 q-29 -29 -129 -51v-205h-117v205q-66 16 -96 33q-10 4 -22.5 11t-14.5 7z" />
<glyph unicode="%" horiz-adv-x="567" d="M61 1311v127h117v-127h-117zM68 16l317 1434h115l-318 -1434h-114zM389 2v127h117v-127h-117z" />
<glyph unicode="&#x26;" horiz-adv-x="552" d="M61 70v749q0 113 56 113q-55 0 -56 115v327q4 2 41 29q84 45 172 45q72 0 134 -27q14 -6 27.5 -13t21.5 -11l8 -6l24 -17v-305q0 -115 -63 -115q66 0 66 -112v-842h-218q-25 0 -50 5t-47.5 12.5t-39 13.5t-31.5 14l-14 6zM178 145q53 -20 96 -20h99v756h-195v-736z M178 1010h195v295q-55 18 -99 18q-45 0 -96 -18v-295z" />
<glyph unicode="'" horiz-adv-x="239" d="M61 1059v385h117v-385h-117z" />
<glyph unicode="(" horiz-adv-x="468" d="M61 666q0 174 32 328.5t81 262t83 164t67 95.5l84 -84q-29 -37 -60 -89.5t-74 -148.5t-69.5 -235.5t-26.5 -292.5q0 -150 24.5 -272t63.5 -194.5t69 -111.5t58 -61l-61 -105q-33 25 -69 68t-87 129t-83 229.5t-32 317.5z" />
<glyph unicode=")" horiz-adv-x="468" d="M61 1432l84 84q33 -39 67 -95.5t83 -164t81 -262t32 -328.5t-32 -317.5t-83 -229.5t-88 -129t-70 -68l-59 105q55 45 104 131q111 195 111 508q0 154 -26.5 293t-69.5 235t-74 148.5t-60 89.5z" />
<glyph unicode="*" horiz-adv-x="616" d="M61 1280l132 82l-132 82l60 108l129 -79v161h117v-161l131 79l57 -108l-129 -82l129 -82l-57 -109l-131 80v-161h-117v161l-129 -80z" />
<glyph unicode="+" horiz-adv-x="544" d="M61 666v129h154v168h117v-168h151v-129h-151v-168h-117v168h-154z" />
<glyph unicode="," horiz-adv-x="239" d="M61 186h117v-385h-117v385z" />
<glyph unicode="-" horiz-adv-x="544" d="M61 651v154h422v-154h-422z" />
<glyph unicode="." horiz-adv-x="239" d="M61 14v164h117v-164h-117z" />
<glyph unicode="/" horiz-adv-x="555" d="M61 16l318 1434h115l-318 -1434h-115z" />
<glyph unicode="0" d="M61 70v1312l25 17l8 6q8 4 21.5 11t27.5 14q61 27 133 26q88 0 173 -45q37 -27 40 -29v-1312l-30 -19l-15 -6q-14 -8 -30.5 -14t-39 -13.5t-48 -12.5t-50.5 -5q-41 0 -86 12.5t-66.5 22.5t-29.5 16zM178 145q55 -20 98 -20t97 20v1168q-53 18 -96.5 18t-98.5 -18v-1168z " />
<glyph unicode="1" horiz-adv-x="239" d="M61 0v1434h117v-1434h-117z" />
<glyph unicode="2" horiz-adv-x="548" d="M61 102v570q0 45 29 76.5t70 31.5h211v535h-308v119h320q43 0 73.5 -30t30.5 -71v-573q0 -45 -28.5 -77t-69.5 -32h-211v-530h309v-121h-327q-43 0 -71 29.5t-28 72.5z" />
<glyph unicode="3" horiz-adv-x="544" d="M61 0v125h306v532h-306v123h306v531h-306v123h324q41 0 69.5 -31t28.5 -74v-487q0 -119 -55 -119q55 0 55 -109v-510q0 -43 -28.5 -73.5t-69.5 -30.5h-324z" />
<glyph unicode="4" d="M61 715v719h117v-650q47 -20 96.5 -20t98.5 20v650h116v-1434h-116v651q-68 -12 -99 -12q-70 0 -131 27q-27 10 -57 30z" />
<glyph unicode="5" horiz-adv-x="548" d="M61 0v121h310v530h-211q-41 0 -70 32t-29 77v573q0 41 31 71t74 30h319v-119h-307v-535h211q41 0 69.5 -31.5t28.5 -76.5v-570q0 -43 -27.5 -72.5t-68.5 -29.5h-330z" />
<glyph unicode="6" horiz-adv-x="555" d="M61 0v1434h117v-656h217q41 0 70 -30.5t29 -75.5v-568q0 -43 -29 -73.5t-70 -30.5h-334zM178 125h201v528h-201v-528z" />
<glyph unicode="7" horiz-adv-x="555" d="M61 1309v125h433v-1434h-117v1309h-316z" />
<glyph unicode="8" horiz-adv-x="540" d="M61 104v490q0 94 29 108q10 6 23 7q-18 0 -30.5 9t-17 33.5t-4.5 32.5v37v512q0 43 29 74t70 31h24v2h197q41 0 69.5 -31t28.5 -74v-491q0 -113 -55 -113q55 0 55 -115v-510q0 -43 -28.5 -73.5t-69.5 -30.5h-41v-2h-180q-41 0 -70 30.5t-29 73.5zM178 127h184v526h-184 v-526zM178 782h184v533h-184v-533z" />
<glyph unicode="9" horiz-adv-x="555" d="M61 762v567q0 43 29 74t70 31h334v-1434h-117v657h-217q-41 0 -70 30t-29 75zM178 780h199v529h-199v-529z" />
<glyph unicode=":" horiz-adv-x="239" d="M61 203v135h117v-135h-117zM61 475v135h117v-135h-117z" />
<glyph unicode=";" horiz-adv-x="239" d="M61 37v309h117v-309h-117zM61 479v131h117v-131h-117z" />
<glyph unicode="=" horiz-adv-x="434" d="M61 532v130h312v-130h-312zM61 807v129h312v-129h-312z" />
<glyph unicode="?" horiz-adv-x="548" d="M61 0v127h117v-127h-117zM61 317v361q0 45 30 76.5t71 31.5h211v506q-49 20 -99 21q-51 0 -96 -23v-141h-117v213l25 18q31 20 57 31q61 27 131 27q49 0 95.5 -14.5t67 -26t26.5 -17.5l24 -18v-596q0 -45 -28.5 -77t-69.5 -32h-211v-340h-117z" />
<glyph unicode="@" horiz-adv-x="806" d="M61 106v981q0 45 29 76t70 31h24v2h463q41 0 69.5 -30.5t28.5 -75.5v-736l-43 -18q-84 -55 -190 -55q-20 0 -44 4t-43 9t-38.5 12t-31 12.5t-23.5 9.5l-10 6l-31 18v336l26 21q86 57 195 57q29 0 100 -12v315h-434v-942h434v55h133v-73q0 -45 -28.5 -76t-69.5 -31h-41v-2 h-446q-41 0 -70 30.5t-29 75.5zM412 430q61 -23 100 -22q41 0 98 22v191q-63 18 -98 18t-100 -18v-191z" />
<glyph unicode="A" d="M61 0v1366l23 18q96 55 190 56q115 0 189 -56l26 -18v-1366h-116v502h-195v-502h-117zM178 627h195v669q-57 20 -99 21q-37 0 -96 -21v-669z" />
<glyph unicode="B" horiz-adv-x="559" d="M61 0v1434h338q41 0 70 -31t29 -74v-487q0 -113 -52 -113q51 0 52 -115v-510q0 -43 -29 -73.5t-70 -30.5h-338zM178 125h203v532h-203v-532zM178 780h203v531h-203v-531z" />
<glyph unicode="C" d="M61 70v1304q4 2 41 29q84 45 172 45q72 0 134 -27q14 -6 27.5 -13t21.5 -11l8 -6l24 -17v-223h-116v154q-55 18 -99 18q-45 0 -96 -18v-1160q53 -20 96 -20t99 20v158h116v-233l-32 -19q-8 -6 -29.5 -16t-67 -22.5t-86.5 -12.5q-25 0 -50 5t-47.5 12.5t-39 13.5t-31.5 14 l-14 6z" />
<glyph unicode="D" horiz-adv-x="555" d="M61 0v1440h334q41 0 70 -31t29 -74v-1231q0 -43 -29 -73.5t-70 -30.5h-334zM178 125h201v1190h-201v-1190z" />
<glyph unicode="E" d="M61 70v1304q4 2 41 29q84 45 172 45q72 0 134 -27q14 -6 27.5 -13t21.5 -11l8 -6l24 -17v-223h-116v154q-55 18 -99 18q-45 0 -96 -18v-672h150v-123h-150v-365q53 -20 96 -20t99 20v158h116v-233l-32 -19q-8 -6 -29.5 -16t-67 -22.5t-86.5 -12.5q-25 0 -50 5t-47.5 12.5 t-39 13.5t-31.5 14l-14 6z" />
<glyph unicode="F" d="M61 0v1364l25 18q25 16 57 29q57 27 131 27q106 0 189 -56l26 -18v-221h-116v151q-49 20 -99 21q-51 0 -96 -23v-667h150v-121l-150 -4v-500h-117z" />
<glyph unicode="G" d="M61 70v1304q4 2 41 29q84 45 172 45q72 0 134 -27q14 -6 27.5 -13t21.5 -11l8 -6l24 -17v-223h-116v154q-55 18 -99 18q-45 0 -96 -18v-1160q53 -20 96 -20t99 20v377h-76v123h192v-575l-32 -19q-8 -6 -29.5 -16t-67 -22.5t-86.5 -12.5q-25 0 -50 5t-47.5 12.5t-39 13.5 t-31.5 14l-14 6z" />
<glyph unicode="H" horiz-adv-x="555" d="M61 0v1434h117v-811h199v811h117v-1434h-117v500h-199v-500h-117z" />
<glyph unicode="I" horiz-adv-x="239" d="M61 0v1434h117v-1434h-117z" />
<glyph unicode="J" d="M61 74v215h117v-146q51 -18 96 -18q43 0 99 18v1297h116v-1366l-24 -19l-57 -28q-61 -27 -134 -27q-70 0 -131 27q-18 6 -37.5 16t-21.5 12z" />
<glyph unicode="K" horiz-adv-x="559" d="M61 0v1436h117v-658h203v656h117v-596q0 -115 -49 -115q49 0 49 -115v-608h-117v653h-203v-653h-117z" />
<glyph unicode="L" horiz-adv-x="555" d="M61 0v1434h117v-1309h316v-125h-433z" />
<glyph unicode="M" horiz-adv-x="860" d="M61 0v1432h213q82 0 156 -37q74 37 156 37q106 0 188 -56l25 -18v-1358h-117v1288q-55 20 -96 21q-51 0 -97 -23v-1286h-116v1288q-66 20 -99 21h-96v-1309h-117z" />
<glyph unicode="N" d="M61 0v1432h213q106 0 189 -56l26 -18v-1358h-116v1288q-57 20 -99 21h-96v-1309h-117z" />
<glyph unicode="O" d="M61 70v1312q4 2 41 29q84 45 172 45q72 0 134 -26q14 -6 27.5 -13.5t21.5 -11.5l8 -6l24 -17v-1312l-32 -19q-8 -6 -29.5 -16t-67 -22.5t-86.5 -12.5q-25 0 -50 5t-47.5 12.5t-39 13.5t-31.5 14l-14 6zM178 145q53 -20 96 -20t99 20v1168q-55 18 -99 18q-45 0 -96 -18 v-1168z" />
<glyph unicode="P" horiz-adv-x="555" d="M61 0v1434h334q41 0 70 -31t29 -74v-567q0 -45 -29 -75t-70 -30h-217v-657h-117zM178 780h201v529h-201v-529z" />
<glyph unicode="Q" d="M61 70v1304q4 2 41 29q84 45 172 45q72 0 134 -27q14 -6 27.5 -13t21.5 -11l8 -6l24 -17v-1374h-215q-25 0 -50 5t-47.5 12.5t-39 13.5t-31.5 14l-14 6zM178 145q53 -20 96 -20h99v1180q-55 18 -99 18q-45 0 -96 -18v-1160z" />
<glyph unicode="R" horiz-adv-x="559" d="M61 0v1434h338q41 0 70 -31t29 -74v-487v-8q0 -104 -52 -105q51 0 52 -106v-9v-612h-117v655h-203v-657h-117zM178 780h203v531h-203v-531z" />
<glyph unicode="S" d="M61 74v215h117v-146q51 -18 96 -18q43 0 99 18v508h-211q-41 0 -71 32t-30 77v596q4 2 41 28q84 45 172 46q72 0 134 -27q14 -6 27.5 -13.5t21.5 -13.5l8 -4l24 -16v-215h-116v145q-55 18 -99 19q-45 0 -96 -19v-508h211q41 0 69.5 -31.5t28.5 -76.5l2 -19v-577l-24 -19 l-57 -28q-61 -27 -134 -27q-70 0 -131 27q-18 6 -37.5 16t-21.5 12z" />
<glyph unicode="T" horiz-adv-x="546" d="M61 1313v123h424v-123h-155v-1313h-117v1313h-152z" />
<glyph unicode="U" d="M61 74v1358h117v-1289q51 -18 96 -18q43 0 99 18v1289h116v-1358l-24 -19l-57 -28q-61 -27 -134 -27q-70 0 -131 27q-18 6 -37.5 16t-21.5 12z" />
<glyph unicode="V" d="M61 0v1432h117v-1307h96q43 0 99 18v1289h116v-1358l-24 -19l-57 -28q-61 -27 -134 -27h-213z" />
<glyph unicode="W" horiz-adv-x="860" d="M61 0v1432h117v-1307h96q43 0 99 18v1289h116v-1289q51 -18 96.5 -18t96.5 18v1289h117v-1358l-25 -19q-20 -14 -55 -28q-61 -27 -133 -27q-70 0 -156 35q-86 -35 -156 -35h-213z" />
<glyph unicode="X" horiz-adv-x="548" d="M61 0v612q0 115 52 115q-25 0 -37.5 22.5t-13.5 39t-1 51.5v594h117v-654h193v654h116v-594q0 -113 -51 -113q51 0 51 -115v-612h-116v655h-193v-655h-117z" />
<glyph unicode="Y" d="M61 727v711h117v-639q45 -23 96 -23q49 0 99 21v641h116v-711l-26 -18q-45 -33 -127 -52v-657h-117v655q-55 12 -98 33q-8 4 -15.5 8t-12.5 8.5t-7 4.5z" />
<glyph unicode="Z" horiz-adv-x="548" d="M61 102v570q0 45 29 76.5t70 31.5h211v535h-308v119h320q43 0 73.5 -30t30.5 -71v-573q0 -45 -28.5 -77t-69.5 -32h-211v-530h309v-121h-329q-41 0 -69 29.5t-28 72.5z" />
<glyph unicode="[" horiz-adv-x="382" d="M61 -145v1738h261v-118h-144v-1502h141v-118h-258z" />
<glyph unicode="\" horiz-adv-x="555" d="M61 1450h115l318 -1434h-115z" />
<glyph unicode="]" horiz-adv-x="382" d="M61 1475v118h261v-1738h-259v118h144v1502h-146z" />
<glyph unicode="_" horiz-adv-x="796" d="M61 -4v156h674v-156h-674z" />
<glyph unicode="`" horiz-adv-x="1228" d="M82 1935l205 -385h137l-205 385h-137z" />
<glyph unicode="a" horiz-adv-x="565" d="M61 78v342q29 20 43 29q82 47 179 47q45 0 100 -15v181q-66 18 -100.5 18t-100.5 -18v-48h-121v117l27 19q6 6 27.5 18t68.5 26.5t98.5 14.5t98.5 -14.5t68.5 -26.5t27.5 -18l27 -19v-653l-33 -21q-16 -10 -63 -28q-70 -25 -125.5 -25t-124.5 25q-47 18 -64 28zM182 156 q68 -25 100.5 -25t100.5 25v190q-47 23 -100.5 23t-100.5 -23v-190z" />
<glyph unicode="b" horiz-adv-x="565" d="M61 76v1366h121v-664q72 12 101 13q109 0 194 -58l27 -18v-639l-33 -19q-16 -10 -63 -28q-70 -25 -125.5 -25t-124.5 25q-47 18 -64 28zM182 152q61 -23 100.5 -23t100.5 23v493q-55 18 -100 18.5t-101 -18.5v-493z" />
<glyph unicode="c" horiz-adv-x="565" d="M61 78v653l27 19q6 6 27.5 18t68.5 26.5t98.5 14.5t98.5 -14.5t68.5 -26.5t27.5 -18l27 -19v-119h-121v50q-66 18 -100.5 18t-100.5 -18v-506q68 -25 100.5 -25t100.5 25v51h121v-129l-33 -21q-16 -10 -63 -28q-70 -25 -125.5 -25t-124.5 25q-47 18 -64 28z" />
<glyph unicode="d" horiz-adv-x="565" d="M61 76v639l27 18q86 57 195 58q29 0 100 -13v664h121v-1366l-33 -19q-16 -10 -63 -28q-70 -25 -125.5 -25t-124.5 25q-47 18 -64 28zM182 152q61 -23 100.5 -23t100.5 23v493q-55 18 -100 19q-51 0 -101 -21v-491z" />
<glyph unicode="e" horiz-adv-x="565" d="M61 82v653l33 19q100 55 188.5 55t188.5 -55l33 -19v-344l-27 -20q-84 -55 -194 -56q-41 0 -99 11v-174q63 -18 98 -18.5t101 18.5v55h121v-125l-27 -19q-6 -6 -26.5 -18t-68.5 -26.5t-99.5 -14.5t-98.5 14.5t-68.5 26.5t-27.5 18zM182 465q47 -23 100.5 -23t100.5 23 v190q-59 25 -100 25t-101 -25v-190z" />
<glyph unicode="f" horiz-adv-x="483" d="M61 2v1352l25 18q86 57 195 58h141v-125h-141q-45 0 -103 -21v-653h148v-133h-150v-496h-115z" />
<glyph unicode="g" horiz-adv-x="565" d="M61 98v639l33 17q100 55 189 55q98 0 190 -55l31 -17v-1059l-27 -18q-86 -57 -194.5 -57t-194.5 57l-27 18v123h115v-53q55 -18 107 -18q45 0 100 18l8 287q-59 -10 -108 -10q-111 0 -195 55zM178 172q47 -23 105 -22q53 0 104 22v485q-51 25 -104 25q-55 0 -105 -25 v-485z" />
<glyph unicode="h" horiz-adv-x="561" d="M61 8v1434h121v-664q72 12 101 13q109 0 194 -58l23 -18v-707h-117v637q-55 18 -100 19q-39 0 -105 -17v-639h-117z" />
<glyph unicode="i" horiz-adv-x="243" d="M61 8v793h121v-793h-121zM61 887v133h121v-133h-121z" />
<glyph unicode="j" horiz-adv-x="243" d="M61 -401v1204h121v-1204h-121zM61 887v131h121v-131h-121z" />
<glyph unicode="k" horiz-adv-x="567" d="M61 6v1440h119v-662h207v228h119v-166q0 -115 -55 -115q55 0 55 -119v-608h-119v653h-207v-651h-119z" />
<glyph unicode="l" horiz-adv-x="243" d="M61 -10v1454h121v-1454h-121z" />
<glyph unicode="m" horiz-adv-x="860" d="M61 10v799h213q74 0 156 -37q82 37 156 37q94 0 172 -47q4 -2 41 -29v-723h-117v654q-63 18 -96 18t-97 -18v-654h-116v654q-66 18 -99 18h-96v-672h-117z" />
<glyph unicode="n" d="M61 10v799h213q61 0 134 -27q14 -6 27.5 -14t21.5 -14l8 -4l24 -17v-723h-116v654q-66 18 -99 18h-96v-672h-117z" />
<glyph unicode="o" d="M61 66v675q37 27 41 29q82 47 172 47q61 0 134 -26q43 -18 57 -33l24 -17v-675l-32 -19q-98 -53 -183 -53q-51 0 -120 24q-31 12 -64 29zM178 145q55 -25 96 -24.5t99 24.5v527q-66 18 -98.5 18t-96.5 -18v-527z" />
<glyph unicode="p" horiz-adv-x="555" d="M61 -399v1208h334q41 0 70 -30.5t29 -76.5v-569q0 -45 -29 -74.5t-70 -29.5h-217v-428h-117zM178 152h201v532h-201v-532z" />
<glyph unicode="q" horiz-adv-x="555" d="M61 133v569q0 45 29 76t70 31h334v-1208h-117v428h-217q-41 0 -70 29.5t-29 74.5zM178 152h199v532h-199v-532z" />
<glyph unicode="r" horiz-adv-x="485" d="M61 2v729l27 19q6 6 27.5 18t68.5 26.5t99 14.5h141v-127h-141q-31 0 -101 -20v-660h-121z" />
<glyph unicode="s" horiz-adv-x="561" d="M61 68v114h121v-41q51 -23 99 -22q45 0 100 22v191h-217q-41 0 -72 33.5t-31 78.5v285q4 4 13.5 10t16.5 11.5t13 9.5q80 49 176.5 49t176.5 -49l43 -31v-115h-119v41q-55 23 -100 23q-47 0 -99 -23v-188h215q41 0 72 -34t31 -79v-286l-27 -19q-20 -18 -57 -33 q-66 -29 -135 -28q-96 0 -177 49z" />
<glyph unicode="t" d="M61 674v127h156v223h121v-223h151v-127h-151v-684h-121v684h-156z" />
<glyph unicode="u" d="M61 78v731h117v-659q51 -23 96 -23q43 0 99 23v659h116v-731l-26 -19q-6 -6 -26.5 -17t-66.5 -25.5t-96 -14.5q-74 0 -131 27q-27 10 -57 30z" />
<glyph unicode="v" d="M61 -2v811h117v-684h96q33 0 99 18v666h116v-735l-24 -17l-8 -4q-8 -6 -21.5 -14t-27.5 -14q-72 -27 -134 -27h-213z" />
<glyph unicode="w" horiz-adv-x="860" d="M61 -2v811h117v-684h96q33 0 99 18v666h116v-666q63 -18 96 -18t97 18v666h117v-735l-25 -17q-18 -16 -55 -32q-72 -27 -133 -27q-74 0 -156 37q-82 -37 -156 -37h-213z" />
<glyph unicode="x" horiz-adv-x="548" d="M61 -4v297q0 117 52 117q-51 0 -52 116v283h117v-342h193v342h116v-283q0 -117 -51 -116q51 0 51 -117v-297h-116v342h-193v-342h-117z" />
<glyph unicode="y" d="M61 92v717h117v-647q66 -20 96 -21q33 0 99 21v647h116v-717l-26 -18q-27 -27 -127 -51v-424h-117v424q-43 8 -98 30l-37 21z" />
<glyph unicode="z" horiz-adv-x="548" d="M61 104v254q0 45 30 78t69 33h211v219h-308v121h320q43 0 73.5 -30.5t30.5 -73.5v-259q0 -45 -29.5 -77.5t-68.5 -32.5h-211v-213h309v-123h-329q-41 0 -69 29.5t-28 74.5z" />
<glyph unicode="|" horiz-adv-x="239" d="M61 -199v1788h117v-1788h-117z" />
<glyph unicode="&#xa1;" horiz-adv-x="239" d="M61 -416v1075h117v-1075h-117zM61 893v125h117v-125h-117z" />
<glyph unicode="&#xa2;" horiz-adv-x="565" d="M61 317v644l27 18q31 31 137 53v219h117v-219q104 -23 135 -53l27 -18v-117h-121v49q-59 16 -100 16t-101 -16v-498q61 -23 100.5 -22.5t100.5 22.5v51h121v-129l-33 -18q-61 -31 -129 -45v-217h-117v217q-72 14 -131 45z" />
<glyph unicode="&#xa3;" d="M61 6v1364l25 19q31 20 57 30q61 27 131 27q94 0 172 -47q14 -8 43 -29v-221h-116v151q-49 20 -99 21q-45 0 -96 -18v-672h150v-123h-150v-381h307v-121h-424z" />
<glyph unicode="&#xa4;" horiz-adv-x="782" d="M61 172l123 127v625l-123 127l84 86l125 -131q78 25 129 24q49 0 117 -20l121 127l84 -86l-109 -113v-655l109 -111l-84 -88l-141 147q-68 -14 -97 -14q-47 0 -108 19l-146 -152zM301 367q51 -25 98 -25t97 25v518q-53 18 -97 18q-39 0 -98 -16v-520z" />
<glyph unicode="&#xa5;" d="M61 727v711h117v-641q55 -20 96 -21q33 0 99 21v641h116v-711l-26 -18q-27 -27 -127 -52v-106h149v-121h-149v-90h149v-121h-149v-219h-117v219h-156v121h156v90h-156v121h156v104q-66 16 -98 33l-37 21z" />
<glyph unicode="&#xa8;" horiz-adv-x="1228" d="M61 1591h138v135h-138v-135zM389 1591h137v135h-137v-135z" />
<glyph unicode="&#xaa;" horiz-adv-x="565" d="M61 78v342q29 20 43 29q82 47 179 47q45 0 100 -15v181q-66 18 -100.5 18t-100.5 -18v-48h-121v117l27 19q6 6 27.5 18t68.5 26.5t98.5 14.5t98.5 -14.5t68.5 -26.5t27.5 -18l27 -19v-653l-33 -21q-16 -10 -63 -28q-70 -25 -125.5 -25t-124.5 25q-47 18 -64 28zM182 156 q68 -25 100.5 -25t100.5 25v190q-47 23 -100.5 23t-100.5 -23v-190z" />
<glyph unicode="&#xad;" horiz-adv-x="544" d="M61 651v154h422v-154h-422z" />
<glyph unicode="&#xb2;" horiz-adv-x="548" d="M61 102v570q0 45 29 76.5t70 31.5h211v535h-308v119h320q43 0 73.5 -30t30.5 -71v-573q0 -45 -28.5 -77t-69.5 -32h-211v-530h309v-121h-327q-43 0 -71 29.5t-28 72.5z" />
<glyph unicode="&#xb3;" horiz-adv-x="544" d="M61 0v125h306v532h-306v123h306v531h-306v123h324q41 0 69.5 -31t28.5 -74v-487q0 -119 -55 -119q55 0 55 -109v-510q0 -43 -28.5 -73.5t-69.5 -30.5h-324z" />
<glyph unicode="&#xb4;" horiz-adv-x="1228" d="M61 1550h117l205 385h-117z" />
<glyph unicode="&#xb7;" horiz-adv-x="239" d="M61 322v163h117v-163h-117z" />
<glyph unicode="&#xb9;" horiz-adv-x="239" d="M61 0v1434h117v-1434h-117z" />
<glyph unicode="&#xba;" d="M61 66v675q37 27 41 29q82 47 172 47q61 0 134 -26q43 -18 57 -33l24 -17v-675l-32 -19q-98 -53 -183 -53q-51 0 -120 24q-31 12 -64 29zM178 145q55 -25 96 -24.5t99 24.5v527q-66 18 -98.5 18t-96.5 -18v-527z" />
<glyph unicode="&#xbf;" d="M61 74v596q0 45 30 77.5t71 32.5h211v340h114v-360q0 -45 -28.5 -78t-69.5 -33h-211v-506q51 -18 96 -18q43 0 99 18v146h116v-215l-24 -19l-57 -28q-61 -27 -134 -27q-70 0 -131 27q-18 6 -37.5 16t-21.5 12zM371 1311v127h118v-127h-118z" />
<glyph unicode="&#xc0;" d="M61 0v1366l23 18q96 55 190 56q115 0 189 -56l26 -18v-1366h-116v502h-195v-502h-117zM82 1935l205 -385h137l-205 385h-137zM178 627h195v669q-57 20 -99 21q-37 0 -96 -21v-669z" />
<glyph unicode="&#xc1;" d="M61 0v1366l23 18q96 55 190 56q115 0 189 -56l26 -18v-1366h-116v502h-195v-502h-117zM61 1550h117l205 385h-117zM178 627h195v669q-57 20 -99 21q-37 0 -96 -21v-669z" />
<glyph unicode="&#xc2;" d="M47 1546l207 312h133l227 -312h-131l-159 217l-146 -217h-131zM61 0v1366l23 18q96 55 190 56q115 0 189 -56l26 -18v-1366h-116v502h-195v-502h-117zM178 627h195v669q-57 20 -99 21q-37 0 -96 -21v-669z" />
<glyph unicode="&#xc3;" d="M61 0v1366l23 18q96 55 190 56q115 0 189 -56l26 -18v-1366h-116v502h-195v-502h-117zM63 1554q12 6 41 23.5t50.5 26t50 6.5t74 -25.5t79.5 -25.5q53 -2 101.5 14t50.5 39v123q-12 -6 -39 -25.5t-49.5 -30t-45 -10.5t-81.5 28.5t-88 26.5q-45 4 -88 -18.5t-56 -24.5 v-127zM178 627h195v669q-57 20 -99 21q-37 0 -96 -21v-669z" />
<glyph unicode="&#xc4;" d="M61 0v1366l23 18q96 55 190 56q115 0 189 -56l26 -18v-1366h-116v502h-195v-502h-117zM61 1591h138v135h-138v-135zM178 627h195v669q-57 20 -99 21q-37 0 -96 -21v-669zM389 1591h137v135h-137v-135z" />
<glyph unicode="&#xc8;" d="M61 70v1304q4 2 41 29q84 45 172 45q72 0 134 -27q14 -6 27.5 -13t21.5 -11l8 -6l24 -17v-223h-116v154q-55 18 -99 18q-45 0 -96 -18v-672h150v-123h-150v-365q53 -20 96 -20t99 20v158h116v-233l-32 -19q-8 -6 -29.5 -16t-67 -22.5t-86.5 -12.5q-25 0 -50 5t-47.5 12.5 t-39 13.5t-31.5 14l-14 6zM82 1935l205 -385h137l-205 385h-137z" />
<glyph unicode="&#xc9;" d="M61 70v1304q4 2 41 29q84 45 172 45q72 0 134 -27q14 -6 27.5 -13t21.5 -11l8 -6l24 -17v-223h-116v154q-55 18 -99 18q-45 0 -96 -18v-672h150v-123h-150v-365q53 -20 96 -20t99 20v158h116v-233l-32 -19q-8 -6 -29.5 -16t-67 -22.5t-86.5 -12.5q-25 0 -50 5t-47.5 12.5 t-39 13.5t-31.5 14l-14 6zM61 1550h117l205 385h-117z" />
<glyph unicode="&#xca;" d="M47 1546l207 312h133l227 -312h-131l-159 217l-146 -217h-131zM61 70v1304q4 2 41 29q84 45 172 45q72 0 134 -27q14 -6 27.5 -13t21.5 -11l8 -6l24 -17v-223h-116v154q-55 18 -99 18q-45 0 -96 -18v-672h150v-123h-150v-365q53 -20 96 -20t99 20v158h116v-233l-32 -19 q-8 -6 -29.5 -16t-67 -22.5t-86.5 -12.5q-25 0 -50 5t-47.5 12.5t-39 13.5t-31.5 14l-14 6z" />
<glyph unicode="&#xcb;" d="M61 70v1304q4 2 41 29q84 45 172 45q72 0 134 -27q14 -6 27.5 -13t21.5 -11l8 -6l24 -17v-223h-116v154q-55 18 -99 18q-45 0 -96 -18v-672h150v-123h-150v-365q53 -20 96 -20t99 20v158h116v-233l-32 -19q-8 -6 -29.5 -16t-67 -22.5t-86.5 -12.5q-25 0 -50 5t-47.5 12.5 t-39 13.5t-31.5 14l-14 6zM61 1591h138v135h-138v-135zM389 1591h137v135h-137v-135z" />
<glyph unicode="&#xcc;" horiz-adv-x="239" d="M61 0v1434h117v-1434h-117zM82 1935l205 -385h137l-205 385h-137z" />
<glyph unicode="&#xcd;" horiz-adv-x="239" d="M61 0v1434h117v-1434h-117zM61 1550h117l205 385h-117z" />
<glyph unicode="&#xce;" horiz-adv-x="239" d="M-147 1546l206 312h134l227 -312h-131l-160 217l-145 -217h-131zM61 0v1434h117v-1434h-117z" />
<glyph unicode="&#xcf;" horiz-adv-x="239" d="M61 0v1434h117v-1434h-117zM61 1591h138v135h-138v-135zM389 1591h137v135h-137v-135z" />
<glyph unicode="&#xd1;" d="M61 0v1432h213q106 0 189 -56l26 -18v-1358h-116v1288q-57 20 -99 21h-96v-1309h-117zM63 1554q12 6 41 23.5t50.5 26t50 6.5t74 -25.5t79.5 -25.5q53 -2 101.5 14t50.5 39v123q-12 -6 -39 -25.5t-49.5 -30t-45 -10.5t-81.5 28.5t-88 26.5q-45 4 -88 -18.5t-56 -24.5 v-127z" />
<glyph unicode="&#xd2;" d="M61 70v1312q4 2 41 29q84 45 172 45q72 0 134 -26q14 -6 27.5 -13.5t21.5 -11.5l8 -6l24 -17v-1312l-32 -19q-8 -6 -29.5 -16t-67 -22.5t-86.5 -12.5q-25 0 -50 5t-47.5 12.5t-39 13.5t-31.5 14l-14 6zM82 1935l205 -385h137l-205 385h-137zM178 145q53 -20 96 -20t99 20 v1168q-55 18 -99 18q-45 0 -96 -18v-1168z" />
<glyph unicode="&#xd3;" d="M61 70v1312q4 2 41 29q84 45 172 45q72 0 134 -26q14 -6 27.5 -13.5t21.5 -11.5l8 -6l24 -17v-1312l-32 -19q-8 -6 -29.5 -16t-67 -22.5t-86.5 -12.5q-25 0 -50 5t-47.5 12.5t-39 13.5t-31.5 14l-14 6zM61 1550h117l205 385h-117zM178 145q53 -20 96 -20t99 20v1168 q-55 18 -99 18q-45 0 -96 -18v-1168z" />
<glyph unicode="&#xd4;" d="M47 1546l207 312h133l227 -312h-131l-159 217l-146 -217h-131zM61 70v1312q4 2 41 29q84 45 172 45q72 0 134 -26q14 -6 27.5 -13.5t21.5 -11.5l8 -6l24 -17v-1312l-32 -19q-8 -6 -29.5 -16t-67 -22.5t-86.5 -12.5q-25 0 -50 5t-47.5 12.5t-39 13.5t-31.5 14l-14 6z M178 145q53 -20 96 -20t99 20v1168q-55 18 -99 18q-45 0 -96 -18v-1168z" />
<glyph unicode="&#xd5;" d="M61 70v1312q4 2 41 29q84 45 172 45q72 0 134 -26q14 -6 27.5 -13.5t21.5 -11.5l8 -6l24 -17v-1312l-32 -19q-8 -6 -29.5 -16t-67 -22.5t-86.5 -12.5q-25 0 -50 5t-47.5 12.5t-39 13.5t-31.5 14l-14 6zM63 1554q12 6 41 23.5t50.5 26t50 6.5t74 -25.5t79.5 -25.5 q53 -2 101.5 14t50.5 39v123q-12 -6 -39 -25.5t-49.5 -30t-45 -10.5t-81.5 28.5t-88 26.5q-45 4 -88 -18.5t-56 -24.5v-127zM178 145q53 -20 96 -20t99 20v1168q-55 18 -99 18q-45 0 -96 -18v-1168z" />
<glyph unicode="&#xd6;" d="M61 70v1312q4 2 41 29q84 45 172 45q72 0 134 -26q14 -6 27.5 -13.5t21.5 -11.5l8 -6l24 -17v-1312l-32 -19q-8 -6 -29.5 -16t-67 -22.5t-86.5 -12.5q-25 0 -50 5t-47.5 12.5t-39 13.5t-31.5 14l-14 6zM61 1591h138v135h-138v-135zM178 145q53 -20 96 -20t99 20v1168 q-55 18 -99 18q-45 0 -96 -18v-1168zM389 1591h137v135h-137v-135z" />
<glyph unicode="&#xd7;" horiz-adv-x="505" d="M61 616l109 119l-109 117l84 92l107 -119l108 119l84 -92l-108 -117l108 -119l-84 -92l-108 119l-107 -119z" />
<glyph unicode="&#xd9;" d="M61 74v1358h117v-1289q51 -18 96 -18q43 0 99 18v1289h116v-1358l-24 -19l-57 -28q-61 -27 -134 -27q-70 0 -131 27q-18 6 -37.5 16t-21.5 12zM82 1935l205 -385h137l-205 385h-137z" />
<glyph unicode="&#xda;" d="M61 74v1358h117v-1289q51 -18 96 -18q43 0 99 18v1289h116v-1358l-24 -19l-57 -28q-61 -27 -134 -27q-70 0 -131 27q-18 6 -37.5 16t-21.5 12zM61 1550h117l205 385h-117z" />
<glyph unicode="&#xdb;" d="M47 1546l207 312h133l227 -312h-131l-159 217l-146 -217h-131zM61 74v1358h117v-1289q51 -18 96 -18q43 0 99 18v1289h116v-1358l-24 -19l-57 -28q-61 -27 -134 -27q-70 0 -131 27q-18 6 -37.5 16t-21.5 12z" />
<glyph unicode="&#xdc;" d="M61 74v1358h117v-1289q51 -18 96 -18q43 0 99 18v1289h116v-1358l-24 -19l-57 -28q-61 -27 -134 -27q-70 0 -131 27q-18 6 -37.5 16t-21.5 12zM61 1591h138v135h-138v-135zM389 1591h137v135h-137v-135z" />
<glyph unicode="&#xdd;" d="M61 727v711h117v-639q45 -23 96 -23q49 0 99 21v641h116v-711l-26 -18q-45 -33 -127 -52v-657h-117v655q-55 12 -98 33q-8 4 -15.5 8t-12.5 8.5t-7 4.5zM61 1550h117l205 385h-117z" />
<glyph unicode="&#xdf;" horiz-adv-x="1228" d="M61 -246v1680h433q41 0 69.5 -31t28.5 -74v-323q0 -119 -55 -119q55 0 55 -109v-674q0 -43 -28.5 -73.5t-69.5 -30.5h-160v125h141v696h-299v-1067h-115zM176 944h299v367h-299v-367z" />
<glyph unicode="&#xe0;" horiz-adv-x="565" d="M61 78v342q29 20 43 29q82 47 179 47q45 0 100 -15v181q-66 18 -100.5 18t-100.5 -18v-48h-121v117l27 19q6 6 27.5 18t68.5 26.5t98.5 14.5t98.5 -14.5t68.5 -26.5t27.5 -18l27 -19v-653l-33 -21q-16 -10 -63 -28q-70 -25 -125.5 -25t-124.5 25q-47 18 -64 28zM82 1294 l205 -385h137l-205 385h-137zM182 156q68 -25 100.5 -25t100.5 25v190q-47 23 -100.5 23t-100.5 -23v-190z" />
<glyph unicode="&#xe1;" horiz-adv-x="565" d="M61 78v342q29 20 43 29q82 47 179 47q45 0 100 -15v181q-66 18 -100.5 18t-100.5 -18v-48h-121v117l27 19q6 6 27.5 18t68.5 26.5t98.5 14.5t98.5 -14.5t68.5 -26.5t27.5 -18l27 -19v-653l-33 -21q-16 -10 -63 -28q-70 -25 -125.5 -25t-124.5 25q-47 18 -64 28zM61 915 h117l205 385h-117zM182 156q68 -25 100.5 -25t100.5 25v190q-47 23 -100.5 23t-100.5 -23v-190z" />
<glyph unicode="&#xe2;" horiz-adv-x="565" d="M33 928l207 311h133l227 -311h-131l-160 217l-145 -217h-131zM61 78v342q29 20 43 29q82 47 179 47q45 0 100 -15v181q-66 18 -100.5 18t-100.5 -18v-48h-121v117l27 19q6 6 27.5 18t68.5 26.5t98.5 14.5t98.5 -14.5t68.5 -26.5t27.5 -18l27 -19v-653l-33 -21 q-16 -10 -63 -28q-70 -25 -125.5 -25t-124.5 25q-47 18 -64 28zM182 156q68 -25 100.5 -25t100.5 25v190q-47 23 -100.5 23t-100.5 -23v-190z" />
<glyph unicode="&#xe3;" horiz-adv-x="565" d="M61 78v342q29 20 43 29q82 47 179 47q45 0 100 -15v181q-66 18 -100.5 18t-100.5 -18v-48h-121v117l27 19q6 6 27.5 18t68.5 26.5t98.5 14.5t98.5 -14.5t68.5 -26.5t27.5 -18l27 -19v-653l-33 -21q-16 -10 -63 -28q-70 -25 -125.5 -25t-124.5 25q-47 18 -64 28zM63 911 q12 6 41 23.5t50.5 26t50 6.5t74 -25.5t79.5 -26.5q53 -2 101.5 14.5t50.5 39.5v123q-12 -6 -39 -25.5t-49.5 -30t-45 -10.5t-81.5 28.5t-88 26.5q-45 4 -88 -18.5t-56 -24.5v-127zM182 156q68 -25 100.5 -25t100.5 25v190q-47 23 -100.5 23t-100.5 -23v-190z" />
<glyph unicode="&#xe4;" horiz-adv-x="565" d="M61 78v342q29 20 43 29q82 47 179 47q45 0 100 -15v181q-66 18 -100.5 18t-100.5 -18v-48h-121v117l27 19q6 6 27.5 18t68.5 26.5t98.5 14.5t98.5 -14.5t68.5 -26.5t27.5 -18l27 -19v-653l-33 -21q-16 -10 -63 -28q-70 -25 -125.5 -25t-124.5 25q-47 18 -64 28zM61 948 h138v135h-138v-135zM182 156q68 -25 100.5 -25t100.5 25v190q-47 23 -100.5 23t-100.5 -23v-190zM389 948h137v135h-137v-135z" />
<glyph unicode="&#xe8;" horiz-adv-x="565" d="M61 82v653l33 19q100 55 188.5 55t188.5 -55l33 -19v-344l-27 -20q-84 -55 -194 -56q-41 0 -99 11v-174q63 -18 98 -18.5t101 18.5v55h121v-125l-27 -19q-6 -6 -26.5 -18t-68.5 -26.5t-99.5 -14.5t-98.5 14.5t-68.5 26.5t-27.5 18zM82 1294l205 -385h137l-205 385h-137z M182 465q47 -23 100.5 -23t100.5 23v190q-59 25 -100 25t-101 -25v-190z" />
<glyph unicode="&#xe9;" horiz-adv-x="565" d="M61 82v653l33 19q100 55 188.5 55t188.5 -55l33 -19v-344l-27 -20q-84 -55 -194 -56q-41 0 -99 11v-174q63 -18 98 -18.5t101 18.5v55h121v-125l-27 -19q-6 -6 -26.5 -18t-68.5 -26.5t-99.5 -14.5t-98.5 14.5t-68.5 26.5t-27.5 18zM61 915h117l205 385h-117zM182 465 q47 -23 100.5 -23t100.5 23v190q-59 25 -100 25t-101 -25v-190z" />
<glyph unicode="&#xea;" horiz-adv-x="565" d="M33 928l207 311h133l227 -311h-131l-160 217l-145 -217h-131zM61 82v653l33 19q100 55 188.5 55t188.5 -55l33 -19v-344l-27 -20q-84 -55 -194 -56q-41 0 -99 11v-174q63 -18 98 -18.5t101 18.5v55h121v-125l-27 -19q-6 -6 -26.5 -18t-68.5 -26.5t-99.5 -14.5t-98.5 14.5 t-68.5 26.5t-27.5 18zM182 465q47 -23 100.5 -23t100.5 23v190q-59 25 -100 25t-101 -25v-190z" />
<glyph unicode="&#xeb;" horiz-adv-x="565" d="M61 82v653l33 19q100 55 188.5 55t188.5 -55l33 -19v-344l-27 -20q-84 -55 -194 -56q-41 0 -99 11v-174q63 -18 98 -18.5t101 18.5v55h121v-125l-27 -19q-6 -6 -26.5 -18t-68.5 -26.5t-99.5 -14.5t-98.5 14.5t-68.5 26.5t-27.5 18zM61 948h138v135h-138v-135zM182 465 q47 -23 100.5 -23t100.5 23v190q-59 25 -100 25t-101 -25v-190zM389 948h137v135h-137v-135z" />
<glyph unicode="&#xec;" horiz-adv-x="243" d="M-151 1527l205 -385h137l-205 385h-137zM61 8v793h121v-793h-121zM61 887v133h121v-133h-121z" />
<glyph unicode="&#xed;" horiz-adv-x="243" d="M63 1142h117l205 385h-117zM61 8v793h121v-793h-121zM61 887v133h121v-133h-121z" />
<glyph unicode="&#xee;" horiz-adv-x="243" d="M-162 1143l207 312h133l227 -312h-131l-159 217l-146 -217h-131zM61 8v793h121v-793h-121zM61 887v133h121v-133h-121z" />
<glyph unicode="&#xef;" horiz-adv-x="243" d="M-111 1142h138v135h-138v-135zM217 1142h137v135h-137v-135zM61 8v793h121v-793h-121zM61 887v133h121v-133h-121z" />
<glyph unicode="&#xf1;" d="M61 10v799h213q61 0 134 -27q14 -6 27.5 -14t21.5 -14l8 -4l24 -17v-723h-116v654q-66 18 -99 18h-96v-672h-117zM63 911q12 6 41 23.5t50.5 26t50 6.5t74 -25.5t79.5 -26.5q53 -2 101.5 14.5t50.5 39.5v123q-12 -6 -39 -25.5t-49.5 -30t-45 -10.5t-81.5 28.5t-88 26.5 q-45 4 -88 -18.5t-56 -24.5v-127z" />
<glyph unicode="&#xf2;" d="M61 66v675q37 27 41 29q82 47 172 47q61 0 134 -26q43 -18 57 -33l24 -17v-675l-32 -19q-98 -53 -183 -53q-51 0 -120 24q-31 12 -64 29zM82 1294l205 -385h137l-205 385h-137zM178 145q55 -25 96 -24.5t99 24.5v527q-66 18 -98.5 18t-96.5 -18v-527z" />
<glyph unicode="&#xf3;" d="M61 66v675q37 27 41 29q82 47 172 47q61 0 134 -26q43 -18 57 -33l24 -17v-675l-32 -19q-98 -53 -183 -53q-51 0 -120 24q-31 12 -64 29zM61 915h117l205 385h-117zM178 145q55 -25 96 -24.5t99 24.5v527q-66 18 -98.5 18t-96.5 -18v-527z" />
<glyph unicode="&#xf4;" d="M33 928l207 311h133l227 -311h-131l-160 217l-145 -217h-131zM61 66v675q37 27 41 29q82 47 172 47q61 0 134 -26q43 -18 57 -33l24 -17v-675l-32 -19q-98 -53 -183 -53q-51 0 -120 24q-31 12 -64 29zM178 145q55 -25 96 -24.5t99 24.5v527q-66 18 -98.5 18t-96.5 -18 v-527z" />
<glyph unicode="&#xf5;" d="M61 66v675q37 27 41 29q82 47 172 47q61 0 134 -26q43 -18 57 -33l24 -17v-675l-32 -19q-98 -53 -183 -53q-51 0 -120 24q-31 12 -64 29zM63 911q12 6 41 23.5t50.5 26t50 6.5t74 -25.5t79.5 -26.5q53 -2 101.5 14.5t50.5 39.5v123q-12 -6 -39 -25.5t-49.5 -30t-45 -10.5 t-81.5 28.5t-88 26.5q-45 4 -88 -18.5t-56 -24.5v-127zM178 145q55 -25 96 -24.5t99 24.5v527q-66 18 -98.5 18t-96.5 -18v-527z" />
<glyph unicode="&#xf6;" d="M61 66v675q37 27 41 29q82 47 172 47q61 0 134 -26q43 -18 57 -33l24 -17v-675l-32 -19q-98 -53 -183 -53q-51 0 -120 24q-31 12 -64 29zM61 948h138v135h-138v-135zM178 145q55 -25 96 -24.5t99 24.5v527q-66 18 -98.5 18t-96.5 -18v-527zM389 948h137v135h-137v-135z " />
<glyph unicode="&#xf7;" horiz-adv-x="577" d="M61 668v125h455v-125h-455zM233 375v129h117v-129h-117zM233 952v131h117v-131h-117z" />
<glyph unicode="&#xf9;" d="M61 78v731h117v-659q51 -23 96 -23q43 0 99 23v659h116v-731l-26 -19q-6 -6 -26.5 -17t-66.5 -25.5t-96 -14.5q-74 0 -131 27q-27 10 -57 30zM82 1294l205 -385h137l-205 385h-137z" />
<glyph unicode="&#xfa;" d="M61 78v731h117v-659q51 -23 96 -23q43 0 99 23v659h116v-731l-26 -19q-6 -6 -26.5 -17t-66.5 -25.5t-96 -14.5q-74 0 -131 27q-27 10 -57 30zM61 915h117l205 385h-117z" />
<glyph unicode="&#xfb;" d="M33 928l207 311h133l227 -311h-131l-160 217l-145 -217h-131zM61 78v731h117v-659q51 -23 96 -23q43 0 99 23v659h116v-731l-26 -19q-6 -6 -26.5 -17t-66.5 -25.5t-96 -14.5q-74 0 -131 27q-27 10 -57 30z" />
<glyph unicode="&#xfc;" d="M61 78v731h117v-659q51 -23 96 -23q43 0 99 23v659h116v-731l-26 -19q-6 -6 -26.5 -17t-66.5 -25.5t-96 -14.5q-74 0 -131 27q-27 10 -57 30zM61 948h138v135h-138v-135zM389 948h137v135h-137v-135z" />
<glyph unicode="&#xfd;" d="M61 92v717h117v-647q66 -20 96 -21q33 0 99 21v647h116v-717l-26 -18q-27 -27 -127 -51v-424h-117v424q-43 8 -98 30l-37 21zM61 942h117l205 385h-117z" />
<glyph unicode="&#xff;" d="M61 92v717h117v-647q66 -20 96 -21q33 0 99 21v647h116v-717l-26 -18q-27 -27 -127 -51v-424h-117v424q-43 8 -98 30l-37 21zM61 948h138v135h-138v-135zM389 948h137v135h-137v-135z" />
<glyph unicode="&#x152;" horiz-adv-x="1101" d="M612 70v1304q4 2 41 29q84 45 172 45q72 0 134 -27q14 -6 27.5 -13t21.5 -11l8 -6l24 -17v-223h-116v154q-55 18 -99 18q-45 0 -96 -18v-672h150v-123h-150v-365q53 -20 96 -20t99 20v158h116v-233l-32 -19q-8 -6 -29.5 -16t-67 -22.5t-86.5 -12.5q-25 0 -50 5 t-47.5 12.5t-39 13.5t-31.5 14l-14 6zM61 70v1312q4 2 41 29q84 45 172 45q72 0 134 -26q14 -6 27.5 -13.5t21.5 -11.5l8 -6l24 -17v-1312l-32 -19q-8 -6 -29.5 -16t-67 -22.5t-86.5 -12.5q-25 0 -50 5t-47.5 12.5t-39 13.5t-31.5 14l-14 6zM178 145q53 -20 96 -20t99 20 v1168q-55 18 -99 18q-45 0 -96 -18v-1168z" />
<glyph unicode="&#x153;" horiz-adv-x="1116" d="M612 82v653l33 19q100 55 188.5 55t188.5 -55l33 -19v-344l-27 -20q-84 -55 -194 -56q-41 0 -99 11v-174q63 -18 98 -18.5t101 18.5v55h121v-125l-27 -19q-6 -6 -26.5 -18t-68.5 -26.5t-99.5 -14.5t-98.5 14.5t-68.5 26.5t-27.5 18zM733 465q47 -23 100.5 -23t100.5 23 v190q-59 25 -100 25t-101 -25v-190zM61 66v675q37 27 41 29q82 47 172 47q61 0 134 -26q43 -18 57 -33l24 -17v-675l-32 -19q-98 -53 -183 -53q-51 0 -120 24q-31 12 -64 29zM178 145q55 -25 96 -24.5t99 24.5v527q-66 18 -98.5 18t-96.5 -18v-527z" />
<glyph unicode="&#x178;" d="M61 727v711h117v-639q45 -23 96 -23q49 0 99 21v641h116v-711l-26 -18q-45 -33 -127 -52v-657h-117v655q-55 12 -98 33q-8 4 -15.5 8t-12.5 8.5t-7 4.5zM61 1591h138v135h-138v-135zM389 1591h137v135h-137v-135z" />
<glyph unicode="&#x2c6;" horiz-adv-x="1228" d="M47 1546l207 312h133l227 -312h-131l-159 217l-146 -217h-131z" />
<glyph unicode="&#x2dc;" horiz-adv-x="1228" d="M63 1554q12 6 41 23.5t50.5 26t50 6.5t74 -25.5t79.5 -25.5q53 -2 101.5 14t50.5 39v123q-12 -6 -39 -25.5t-49.5 -30t-45 -10.5t-81.5 28.5t-88 26.5q-45 4 -88 -18.5t-56 -24.5v-127z" />
<glyph unicode="&#x2000;" horiz-adv-x="966" />
<glyph unicode="&#x2001;" horiz-adv-x="1935" />
<glyph unicode="&#x2002;" horiz-adv-x="966" />
<glyph unicode="&#x2003;" horiz-adv-x="1935" />
<glyph unicode="&#x2004;" horiz-adv-x="645" />
<glyph unicode="&#x2005;" horiz-adv-x="483" />
<glyph unicode="&#x2006;" horiz-adv-x="321" />
<glyph unicode="&#x2007;" horiz-adv-x="321" />
<glyph unicode="&#x2008;" horiz-adv-x="241" />
<glyph unicode="&#x2009;" horiz-adv-x="387" />
<glyph unicode="&#x200a;" horiz-adv-x="106" />
<glyph unicode="&#x2010;" horiz-adv-x="544" d="M61 651v154h422v-154h-422z" />
<glyph unicode="&#x2011;" horiz-adv-x="544" d="M61 651v154h422v-154h-422z" />
<glyph unicode="&#x2012;" horiz-adv-x="544" d="M61 651v154h422v-154h-422z" />
<glyph unicode="&#x2013;" horiz-adv-x="434" d="M61 651v154h312v-154h-312z" />
<glyph unicode="&#x2014;" horiz-adv-x="796" d="M61 651v154h674v-154h-674z" />
<glyph unicode="&#x2018;" horiz-adv-x="239" d="M61 1059v385h117v-385h-117z" />
<glyph unicode="&#x2019;" horiz-adv-x="239" d="M61 1059v385h117v-385h-117z" />
<glyph unicode="&#x201c;" horiz-adv-x="444" d="M61 1059v385h117v-385h-117zM266 1059v385h117v-385h-117z" />
<glyph unicode="&#x201d;" horiz-adv-x="444" d="M61 1059v385h117v-385h-117zM266 1059v385h117v-385h-117z" />
<glyph unicode="&#x2022;" horiz-adv-x="368" d="M61 573v246h246v-246h-246z" />
<glyph unicode="&#x2026;" horiz-adv-x="718" d="M540 14v164h117v-164h-117zM301 14v164h117v-164h-117zM61 14v164h117v-164h-117z" />
<glyph unicode="&#x202f;" horiz-adv-x="387" />
<glyph unicode="&#x205f;" horiz-adv-x="483" />
<glyph unicode="&#x20ac;" horiz-adv-x="692" d="M61 530v121h142v90h-142v121h142v520l24 19q31 20 58 31q61 27 131 26q94 0 172 -47q14 -8 43 -29v-221h-117v152q-49 20 -98 20q-43 0 -97 -18v-453h164v-121h-164v-90h164v-121h-164v-374q57 -23 97 -23q37 0 98 23v157h117v-233l-33 -19q-8 -6 -29.5 -16t-66.5 -22.5 t-86 -12.5q-25 0 -50.5 5t-48 12.5t-39 13.5t-30.5 12l-15 8l-30 19v450h-142z" />
<glyph unicode="&#x2122;" horiz-adv-x="1406" d="M608 0v1432h213q82 0 156 -37q74 37 156 37q106 0 188 -56l25 -18v-1358h-117v1288q-55 20 -96 21q-51 0 -97 -23v-1286h-116v1288q-66 20 -99 21h-96v-1309h-117zM61 1313v123h424v-123h-155v-1313h-117v1313h-152z" />
<glyph unicode="&#xe000;" horiz-adv-x="810" d="M0 810h810v-810h-810v810z" />
<glyph unicode="&#xfb01;" horiz-adv-x="727" d="M544 8v793h121v-793h-121zM544 887v133h121v-133h-121zM61 2v1352l25 18q86 57 195 58h141v-125h-141q-45 0 -103 -21v-653h148v-133h-150v-496h-115z" />
<glyph unicode="&#xfb02;" horiz-adv-x="727" d="M544 -10v1454h121v-1454h-121zM61 2v1352l25 18q86 57 195 58h141v-125h-141q-45 0 -103 -21v-653h148v-133h-150v-496h-115z" />
<glyph unicode="&#xfb03;" horiz-adv-x="1210" d="M1028 8v793h121v-793h-121zM1028 887v133h121v-133h-121zM544 2v1352l25 18q86 57 195 58h141v-125h-141q-45 0 -103 -21v-653h148v-133h-150v-496h-115zM61 2v1352l25 18q86 57 195 58h141v-125h-141q-45 0 -103 -21v-653h148v-133h-150v-496h-115z" />
<glyph unicode="&#xfb04;" horiz-adv-x="1210" d="M1028 -10v1454h121v-1454h-121zM544 2v1352l25 18q86 57 195 58h141v-125h-141q-45 0 -103 -21v-653h148v-133h-150v-496h-115zM61 2v1352l25 18q86 57 195 58h141v-125h-141q-45 0 -103 -21v-653h148v-133h-150v-496h-115z" />
</font>
</defs>
</svg>
