<?xml version="1.0" ?><!DOCTYPE svg  PUBLIC '-//W3C//DTD SVG 1.1//EN'  'http://www.w3.org/Graphics/SVG/1.1/DTD/svg11.dtd'><svg enable-background="new 0 0 512 512" id="Layer_1" version="1.1" viewBox="0 0 512 512" xml:space="preserve" xmlns="http://www.w3.org/2000/svg" xmlns:xlink="http://www.w3.org/1999/xlink"><path d="M374,511.7H138c-76.2,0-138-61.8-138-138v-236c0-76.2,61.8-138,138-138h236c76.2,0,138,61.8,138,138v236  C512,449.9,450.2,511.7,374,511.7z" fill="#84BD00"/><path d="M256,129c-69,0-125,56-125,125s56,125,125,125s125-56,125-125S325,129,256,129z M313.7,327.3  c-1.6,2.9-4.5,4.5-7.5,4.5c-1.4,0-2.8-0.3-4.1-1c-20-11-42.8-16.9-65.7-16.9c-13.8,0-27.4,2-40.4,6.1c-4.5,1.4-9.3-1.1-10.7-5.7  c-1.4-4.5,1.1-14.1,5.7-15.5c14.7-4.5,30-6.8,45.5-6.8c25.9,0,51.5,6.6,74,19C314.5,313.1,316,323.1,313.7,327.3z M329.6,280.2  c-1.8,3.5-5.3,9-8.9,9c-1.6,0-3.1-0.3-4.6-1.1c-24.8-12.9-51.6-19.4-79.8-19.4c-15.5,0-30.9,2-45.7,6.1c-5.4,1.5-10.9-1.7-12.3-7  c-1.4-5.4,1.7-14.5,7-15.9c16.6-4.5,33.7-6.8,51-6.8c30.9,0,61.7,7.5,89,21.7C330.3,269.2,332.2,275.3,329.6,280.2z M336.3,242.5  c-1.7,0-3.5-0.4-5.1-1.2c-29.6-14.8-61.5-22.2-94.8-22.2c-17.3,0-34.6,2.1-51.4,6.3c-6.2,1.5-12.4-2.2-13.9-8.4  c-1.5-6.1,2.2-13.5,8.4-15.1c18.5-4.6,37.7-6.9,56.9-6.9c36.9,0,72.2,8.3,105,24.6c5.7,2.8,8,9.7,5.2,15.4  C344.5,239,340.5,242.5,336.3,242.5z" fill="#FFFFFF"/></svg>