<?xml version="1.0" ?><svg data-name="Layer 1" id="Layer_1" viewBox="0 0 128 128" xmlns="http://www.w3.org/2000/svg"><defs><style>.cls-1,.cls-2{fill:#ffffff;}.cls-2{fill-rule:evenodd;}</style></defs><title/><path class="cls-1" d="M104,8a16,16,0,0,1,16,16v80a16,16,0,0,1-16,16H24A16,16,0,0,1,8,104V24A16,16,0,0,1,24,8h80m0-8H24A24.07,24.07,0,0,0,0,24v80a24.07,24.07,0,0,0,24,24h80a24.07,24.07,0,0,0,24-24V24A24.07,24.07,0,0,0,104,0Z"/><path class="cls-2" d="M98.62,53.92c-.49-6.75-1.72-13.72-10.35-14.23a426.5,426.5,0,0,0-48.55,0c-8.63.5-9.86,7.48-10.35,14.23a135,135,0,0,0,0,20.16c.49,6.75,1.72,13.72,10.35,14.23a426.5,426.5,0,0,0,48.55,0c8.63-.5,9.86-7.48,10.35-14.23A135,135,0,0,0,98.62,53.92ZM57,73V53L76,63Z"/></svg>